<svg xmlns="http://www.w3.org/2000/svg" viewBox="0 0 46.56 203.14"><defs><style>.cls-1{fill:#545454;}.cls-2{fill:#383938;}.cls-3{fill:#313131;}.cls-4{fill:#434343;}.cls-14,.cls-16,.cls-17,.cls-5,.cls-8{fill:none;stroke:#c4c4c3;}.cls-16,.cls-5{stroke-linecap:round;stroke-linejoin:round;}.cls-16,.cls-17,.cls-5,.cls-8{stroke-width:0.65px;}.cls-15,.cls-6{fill:#c4c4c3;}.cls-7{fill:#6e6e6e;}.cls-14,.cls-17,.cls-8{stroke-miterlimit:10;}.cls-9{fill:#fff;}.cls-10{fill:#878787;}.cls-11{fill:#2e2e2e;}.cls-12{fill:#af4570;}.cls-13{fill:#189cd8;}.cls-14{stroke-width:0.48px;}.cls-15{fill-rule:evenodd;}.cls-16{stroke-dasharray:0 1.33;}.cls-17{stroke-dasharray:0.65 0.65;}</style></defs><title>toolbar</title><g id="Calque_2" data-name="Calque 2"><g id="tool_bar" data-name="tool bar"><path class="cls-1" d="M.32,202.81V2.65A2.27,2.27,0,0,1,2.59.39H44a2.27,2.27,0,0,1,2.26,2.26V202.81Z"/><path class="cls-2" d="M44,.71a1.94,1.94,0,0,1,1.94,1.94V202.49H.65V2.65A1.94,1.94,0,0,1,2.59.71H44m0-.65H2.59A2.59,2.59,0,0,0,0,2.65V203.14H46.57V2.65A2.59,2.59,0,0,0,44,.06"/><rect class="cls-2" x="3.88" y="161.65" width="38.8" height="0.65"/><path class="cls-3" d="M21.42,37.43H5.9a1.29,1.29,0,0,1-1.29-1.29V24.49A1.29,1.29,0,0,1,5.9,23.2H21.42a1.29,1.29,0,0,1,1.29,1.29V36.14a1.29,1.29,0,0,1-1.29,1.29"/><path class="cls-4" d="M.32,8.73V2.59A2.27,2.27,0,0,1,2.59.32H44a2.27,2.27,0,0,1,2.26,2.26V8.73Z"/><path class="cls-2" d="M44,.65a1.94,1.94,0,0,1,1.94,1.94V8.41H.65V2.59A1.94,1.94,0,0,1,2.59.65H44M44,0H2.59A2.59,2.59,0,0,0,0,2.59V9.05H46.57V2.59A2.59,2.59,0,0,0,44,0"/><polygon class="cls-5" points="9.45 24.41 10.04 35.92 13.33 32.74 17.88 32.26 9.45 24.41"/><polygon class="cls-6" points="28.69 24.41 29.28 35.92 32.57 32.74 37.12 32.26 28.69 24.41"/><rect class="cls-7" x="8.81" y="56.61" width="9.7" height="8.41"/><rect class="cls-8" x="8.81" y="56.61" width="9.7" height="8.41"/><path class="cls-7" d="M36.46,65H29.35a1.29,1.29,0,0,1-1.29-1.29V57.9a1.29,1.29,0,0,1,1.29-1.29h7.11a1.29,1.29,0,0,1,1.29,1.29v5.82A1.29,1.29,0,0,1,36.46,65"/><rect class="cls-8" x="28.05" y="56.61" width="9.7" height="8.41" rx="1.29" ry="1.29"/><path class="cls-7" d="M19.48,75.79c0,2.5-2.61,4.53-5.82,4.53s-5.82-2-5.82-4.53,2.61-4.53,5.82-4.53,5.82,2,5.82,4.53"/><ellipse class="cls-8" cx="13.66" cy="75.79" rx="5.82" ry="4.53"/><polygon class="cls-7" points="35.66 71.59 30.15 71.59 27.4 75.79 30.15 79.99 35.66 79.99 38.41 75.79 35.66 71.59"/><polygon class="cls-8" points="35.66 71.59 30.15 71.59 27.4 75.79 30.15 79.99 35.66 79.99 38.41 75.79 35.66 71.59"/><polyline class="cls-8" points="29.91 51.11 29.91 41.16 37.27 48.76"/><path class="cls-6" d="M13.31,46.41a.55.55,0,0,1,.13-.52.55.55,0,0,1,.78.78.54.54,0,0,1-.52.14L9.87,50.63l6.06-1.78,1.56-3.11-3.11-3.11-3.11,1.56L9.48,50.24h0Z"/><rect class="cls-6" x="15.68" y="40.71" width="3.03" height="4.4" transform="translate(-25.3 24.73) rotate(-45)"/><polygon class="cls-9" points="9.3 200.18 9.3 197.91 7.03 197.91 7.03 192.09 12.85 192.09 12.85 194.36 15.12 194.36 15.12 200.18 9.3 200.18"/><path class="cls-10" d="M12.53,192.42v2.26H14.8v5.17H9.62v-2.26H7.36v-5.17Zm.65-.65H6.71v6.47H9v2.26h6.47V194H13.18v-2.26Z"/><rect class="cls-9" x="10.27" y="195.33" width="3.88" height="3.88"/><path class="cls-11" d="M13.5,198.56H10.91V196H13.5Zm1.29-3.88H9.62v5.17h5.17Z"/><rect class="cls-9" x="7.68" y="192.74" width="4.53" height="4.53"/><path class="cls-11" d="M11.88,196.95H8v-3.88h3.88Zm.65-4.53H7.36v5.17h5.17Z"/><rect class="cls-12" x="18.84" y="177.95" width="21.34" height="21.42"/><path class="cls-9" d="M39.53,198.72h-20V178.6h20Zm1.29-21.42H18.19V200H40.83Z"/><path class="cls-11" d="M40.18,199.37H18.84V177.95H40.18Zm.65-22.07H18.19V200H40.83Z"/><rect class="cls-1" x="24.33" y="183.45" width="10.35" height="10.43"/><path class="cls-9" d="M34.36,193.55h-9.7v-9.78h9.7ZM35,183.12H24V194.2H35V183.12Z"/><rect class="cls-1" x="24.98" y="184.09" width="9.05" height="9.14"/><path class="cls-11" d="M33.71,192.9H25.3v-8.49h8.41Zm.65-9.14h-9.7v9.78h9.7Z"/><rect class="cls-13" x="7.2" y="166.27" width="21.99" height="22.07"/><path class="cls-9" d="M28.86,188H7.52V166.59H28.86Zm.65-22.07H6.87v22.72H29.51Z"/><polyline class="cls-5" points="39.86 172.63 39.86 168.81 36.05 168.81"/><polygon class="cls-6" points="38.29 172.41 41.43 172.41 39.86 173.99 38.29 172.41"/><polygon class="cls-6" points="36.26 170.38 36.26 167.24 34.69 168.81 36.26 170.38"/><line class="cls-14" x1="5.33" y1="3.16" x2="2.59" y2="5.9"/><line class="cls-14" x1="2.59" y1="3.16" x2="5.33" y2="5.9"/><polyline class="cls-14" points="42.68 5.9 41.31 4.53 42.68 3.16"/><polyline class="cls-14" points="40.74 5.9 39.37 4.53 40.74 3.16"/><rect class="cls-2" x="17.14" y="11.03" width="0.65" height="2.59"/><rect class="cls-2" x="18.43" y="11.03" width="0.65" height="2.59"/><rect class="cls-2" x="19.73" y="11.03" width="0.65" height="2.59"/><rect class="cls-2" x="21.02" y="11.03" width="0.65" height="2.59"/><rect class="cls-2" x="22.31" y="11.03" width="0.65" height="2.59"/><rect class="cls-2" x="23.61" y="11.03" width="0.65" height="2.59"/><rect class="cls-2" x="24.9" y="11.03" width="0.65" height="2.59"/><rect class="cls-2" x="26.19" y="11.03" width="0.65" height="2.59"/><rect class="cls-2" x="27.49" y="11.03" width="0.65" height="2.59"/><rect class="cls-2" x="28.78" y="11.03" width="0.65" height="2.59"/><line class="cls-8" x1="9.14" y1="95.3" x2="18.19" y2="86.24"/><path class="cls-8" d="M28.38,95.49a9,9,0,0,1,9.05-9.05"/><path class="cls-15" d="M13,106.72a1.9,1.9,0,0,0-2.77-.09c-1,1.06-.68,2.06-1.9,3.34,0,0,3.18,1,4.76-.33a2.05,2.05,0,0,0-.09-2.92"/><polygon class="cls-15" points="18.66 102.04 18.46 100.57 17.38 100.7 12.29 105.39 14.2 107.4 18.66 102.04"/><rect class="cls-6" x="28.09" y="104.62" width="8.01" height="3.41" transform="translate(-65.78 53.84) rotate(-45)"/><path class="cls-6" d="M37.65,102l-1.21-1.21a.78.78,0,0,0-1.07-.13L34,102.05l2.41,2.41L37.78,103a.78.78,0,0,0-.13-1.08"/><path class="cls-6" d="M27.4,111l2.84-.43-2.41-2.41Zm.66-.66.17-1.12,1,1Z"/><path class="cls-6" d="M18.39,117.21,17.18,116a.77.77,0,0,0-1.06-.15l-.5.5c.12.31.23.67.34,1A6.11,6.11,0,0,0,17,119.78l.14-.14,1.37-1.37a.77.77,0,0,0-.15-1.06"/><path class="cls-6" d="M15.11,116.86l-.37.36-1.2,1.2c.12.31.22.66.34,1A6.06,6.06,0,0,0,15,121.85l-.46.46a6.45,6.45,0,0,1-1.23-2.66c-.07-.24-.15-.48-.22-.71l-1.62,1.62c.12.31.22.66.34,1A6.07,6.07,0,0,0,12.82,124l-.46.46a6.46,6.46,0,0,1-1.23-2.66c-.07-.24-.15-.48-.22-.71l-1.65,1.65-.62,3,3-.62,4.89-4.89a6.48,6.48,0,0,1-1.23-2.65c-.07-.25-.15-.49-.23-.72M9.38,125l.25-1.2,1,1Z"/><line class="cls-5" x1="36.63" y1="120.17" x2="36.63" y2="120.17"/><path class="cls-16" d="M36.76,121.5a4.67,4.67,0,0,1-9,1.58"/><line class="cls-5" x1="27.57" y1="122.44" x2="27.57" y2="122.44"/><path class="cls-6" d="M27.54,118.57a5.23,5.23,0,0,1,5.32-2.37,5.19,5.19,0,0,1,2.65,1.34,5.1,5.1,0,0,1,1.44,2.55.32.32,0,0,1-.63.16h0a4.37,4.37,0,0,0-1.35-2.1,4.29,4.29,0,0,0-2.25-1,4.18,4.18,0,0,0-2.37.43,4.06,4.06,0,0,0-1.7,1.64.65.65,0,1,1-1.13-.63l0,0Z"/><polygon class="cls-6" points="26.23 117.42 30.27 119.85 27.04 120.66 26.23 117.42"/><path class="cls-6" d="M8.77,133.39l2.32,2.32L8.77,138Zm-.65-1.56v7.76L12,135.71Z"/><polygon class="cls-6" points="15.28 135.71 19.16 131.83 19.16 139.59 15.28 135.71"/><line class="cls-17" x1="13.64" y1="130.86" x2="13.64" y2="140.56"/><rect class="cls-6" x="30.65" y="134.89" width="0.65" height="0.65"/><rect class="cls-6" x="26.77" y="134.89" width="0.65" height="0.65"/><rect class="cls-6" x="33.23" y="134.89" width="0.65" height="0.65"/><rect class="cls-6" x="29.35" y="134.89" width="0.65" height="0.65"/><path class="cls-6" d="M36.12,134.75a4.09,4.09,0,0,1,0,.62l.59.55A4.52,4.52,0,0,0,29.1,132H29a3.23,3.23,0,1,0,0,6.47h.07a4.51,4.51,0,0,0,5.47.67l0-.75a3.87,3.87,0,0,1-1.81.7l-.46,0a3.85,3.85,0,0,1-2.32-.79,3.22,3.22,0,0,0,2.29-2.77h.35v-.65h-.35a3.22,3.22,0,0,0-2.3-2.77,3.86,3.86,0,0,1,1.88-.76l.46,0a3.88,3.88,0,0,1,3.85,3.42m-9.67.46a2.59,2.59,0,0,1,2.07-2.53,4.51,4.51,0,0,0,0,5.07,2.59,2.59,0,0,1-2.07-2.54m5.17,0a2.58,2.58,0,0,1-2.26,2.55,3.85,3.85,0,0,1-.95-2.09s0-.09,0-.14h.3v-.65H28.4a3.88,3.88,0,0,1,1-2.23,2.58,2.58,0,0,1,2.27,2.55"/><polygon class="cls-6" points="35.02 135.21 35.37 142.02 37.31 140.14 40.01 139.86 35.02 135.21"/><path class="cls-6" d="M11.28,149.54a1.12,1.12,0,0,1,1.12-1.12h1.39v-2H9.3v4.49h2Z"/><path class="cls-7" d="M12.4,148.75h2.69a.78.78,0,0,1,.78.78v2.69a.79.79,0,0,1-.79.79H12.4a.79.79,0,0,1-.79-.79v-2.69A.79.79,0,0,1,12.4,148.75Z"/><path class="cls-6" d="M15.09,148.87a.67.67,0,0,1,.67.67v2.69a.67.67,0,0,1-.67.67H12.4a.68.68,0,0,1-.67-.67v-2.69a.67.67,0,0,1,.67-.67h2.69m0-.22H12.4a.9.9,0,0,0-.9.9v2.69a.9.9,0,0,0,.9.9h2.69a.9.9,0,0,0,.9-.9v-2.69a.9.9,0,0,0-.9-.9"/><path class="cls-1" d="M15.78,154.86a2.13,2.13,0,1,1,2.13-2.13,2.13,2.13,0,0,1-2.13,2.13"/><path class="cls-6" d="M15.78,150.71a2,2,0,1,1-2,2,2,2,0,0,1,2-2m0-.23A2.24,2.24,0,1,0,18,152.73a2.24,2.24,0,0,0-2.24-2.24"/><path class="cls-6" d="M36.06,149.35l-1.41-1.41,2.12-2.11a1,1,0,1,1,1.41,1.41Z"/><path class="cls-6" d="M33.23,149.35l1.41,1.41-5.48,5a.63.63,0,0,1-.89-.89l5-5.48m0-.94-.46.5-5,5.48a1.28,1.28,0,0,0,1.8,1.8l5.48-5,.5-.46-.48-.48-1.41-1.41Z"/><path class="cls-6" d="M32.82,147.52h0a1.29,1.29,0,0,1,1.83,0l1.83,1.83a1.29,1.29,0,0,1-1.83,1.83l-1.83-1.83a1.29,1.29,0,0,1,0-1.83"/></g></g></svg>